<mxfile host="app.diagrams.net" modified="2021-06-10T17:40:08.411Z" agent="5.0 (Windows NT 10.0; Win64; x64) AppleWebKit/537.36 (KHTML, like Gecko) Chrome/91.0.4472.77 Safari/537.36" etag="mcjR2lqi9aCvOPM2etR5" version="14.6.6" type="github">
  <diagram id="C5RBs43oDa-KdzZeNtuy" name="Page-1">
    <mxGraphModel dx="2031" dy="1150" grid="1" gridSize="10" guides="1" tooltips="1" connect="1" arrows="1" fold="1" page="1" pageScale="1" pageWidth="827" pageHeight="1169" math="0" shadow="0">
      <root>
        <mxCell id="WIyWlLk6GJQsqaUBKTNV-0" />
        <mxCell id="WIyWlLk6GJQsqaUBKTNV-1" parent="WIyWlLk6GJQsqaUBKTNV-0" />
        <mxCell id="CYf8EaJ0eoEuyEV1X-x--5" value="" style="edgeStyle=orthogonalEdgeStyle;rounded=0;orthogonalLoop=1;jettySize=auto;html=1;exitX=0.5;exitY=1;exitDx=0;exitDy=0;entryX=0.5;entryY=0;entryDx=0;entryDy=0;" parent="WIyWlLk6GJQsqaUBKTNV-1" source="WIyWlLk6GJQsqaUBKTNV-3" target="CYf8EaJ0eoEuyEV1X-x--2" edge="1">
          <mxGeometry relative="1" as="geometry" />
        </mxCell>
        <mxCell id="WIyWlLk6GJQsqaUBKTNV-3" value="start" style="rounded=1;whiteSpace=wrap;html=1;fontSize=12;glass=0;strokeWidth=1;shadow=0;" parent="WIyWlLk6GJQsqaUBKTNV-1" vertex="1">
          <mxGeometry x="367" y="14" width="80" height="30" as="geometry" />
        </mxCell>
        <mxCell id="CYf8EaJ0eoEuyEV1X-x--12" style="edgeStyle=orthogonalEdgeStyle;rounded=0;orthogonalLoop=1;jettySize=auto;html=1;" parent="WIyWlLk6GJQsqaUBKTNV-1" source="CYf8EaJ0eoEuyEV1X-x--0" target="CYf8EaJ0eoEuyEV1X-x--10" edge="1">
          <mxGeometry relative="1" as="geometry" />
        </mxCell>
        <mxCell id="CYf8EaJ0eoEuyEV1X-x--0" value="" style="rounded=1;whiteSpace=wrap;html=1;arcSize=11;" parent="WIyWlLk6GJQsqaUBKTNV-1" vertex="1">
          <mxGeometry x="264" y="84" width="286" height="130" as="geometry" />
        </mxCell>
        <mxCell id="CYf8EaJ0eoEuyEV1X-x--6" style="edgeStyle=orthogonalEdgeStyle;rounded=0;orthogonalLoop=1;jettySize=auto;html=1;exitX=0.5;exitY=1;exitDx=0;exitDy=0;entryX=0.5;entryY=0;entryDx=0;entryDy=0;" parent="WIyWlLk6GJQsqaUBKTNV-1" source="CYf8EaJ0eoEuyEV1X-x--2" target="CYf8EaJ0eoEuyEV1X-x--4" edge="1">
          <mxGeometry relative="1" as="geometry" />
        </mxCell>
        <mxCell id="CYf8EaJ0eoEuyEV1X-x--2" value="void setup" style="rounded=1;whiteSpace=wrap;html=1;fillColor=#ffe6cc;strokeColor=#d79b00;" parent="WIyWlLk6GJQsqaUBKTNV-1" vertex="1">
          <mxGeometry x="347" y="74" width="120" height="20" as="geometry" />
        </mxCell>
        <mxCell id="CYf8EaJ0eoEuyEV1X-x--8" style="edgeStyle=orthogonalEdgeStyle;rounded=0;orthogonalLoop=1;jettySize=auto;html=1;exitX=0.5;exitY=1;exitDx=0;exitDy=0;entryX=0.5;entryY=0;entryDx=0;entryDy=0;" parent="WIyWlLk6GJQsqaUBKTNV-1" source="CYf8EaJ0eoEuyEV1X-x--4" target="CYf8EaJ0eoEuyEV1X-x--7" edge="1">
          <mxGeometry relative="1" as="geometry" />
        </mxCell>
        <mxCell id="CYf8EaJ0eoEuyEV1X-x--4" value="initializeer pinnen (input / output)" style="rounded=0;whiteSpace=wrap;html=1;" parent="WIyWlLk6GJQsqaUBKTNV-1" vertex="1">
          <mxGeometry x="310" y="114" width="193" height="30" as="geometry" />
        </mxCell>
        <mxCell id="CYf8EaJ0eoEuyEV1X-x--7" value="start seriÃ«le monitor" style="rounded=0;whiteSpace=wrap;html=1;" parent="WIyWlLk6GJQsqaUBKTNV-1" vertex="1">
          <mxGeometry x="310" y="164" width="193" height="30" as="geometry" />
        </mxCell>
        <mxCell id="CYf8EaJ0eoEuyEV1X-x--11" value="" style="rounded=1;whiteSpace=wrap;html=1;arcSize=6;" parent="WIyWlLk6GJQsqaUBKTNV-1" vertex="1">
          <mxGeometry x="33" y="253" width="768" height="890" as="geometry" />
        </mxCell>
        <mxCell id="CYf8EaJ0eoEuyEV1X-x--15" style="edgeStyle=orthogonalEdgeStyle;rounded=0;orthogonalLoop=1;jettySize=auto;html=1;" parent="WIyWlLk6GJQsqaUBKTNV-1" source="CYf8EaJ0eoEuyEV1X-x--10" target="CYf8EaJ0eoEuyEV1X-x--13" edge="1">
          <mxGeometry relative="1" as="geometry" />
        </mxCell>
        <mxCell id="CYf8EaJ0eoEuyEV1X-x--10" value="void loop" style="rounded=1;whiteSpace=wrap;html=1;fillColor=#dae8fc;strokeColor=#6c8ebf;" parent="WIyWlLk6GJQsqaUBKTNV-1" vertex="1">
          <mxGeometry x="347.5" y="240" width="120" height="20" as="geometry" />
        </mxCell>
        <mxCell id="CYf8EaJ0eoEuyEV1X-x--42" style="edgeStyle=orthogonalEdgeStyle;rounded=0;orthogonalLoop=1;jettySize=auto;html=1;entryX=0.5;entryY=0;entryDx=0;entryDy=0;" parent="WIyWlLk6GJQsqaUBKTNV-1" source="CYf8EaJ0eoEuyEV1X-x--13" target="CYf8EaJ0eoEuyEV1X-x--41" edge="1">
          <mxGeometry relative="1" as="geometry" />
        </mxCell>
        <mxCell id="CYf8EaJ0eoEuyEV1X-x--13" value="lees waarde potentiometer 1 en vloeiend omlaag aan snelheid potentiometer 1" style="rounded=0;whiteSpace=wrap;html=1;" parent="WIyWlLk6GJQsqaUBKTNV-1" vertex="1">
          <mxGeometry x="183" y="274" width="447" height="30" as="geometry" />
        </mxCell>
        <mxCell id="CYf8EaJ0eoEuyEV1X-x--26" style="edgeStyle=orthogonalEdgeStyle;rounded=0;orthogonalLoop=1;jettySize=auto;html=1;" parent="WIyWlLk6GJQsqaUBKTNV-1" source="CYf8EaJ0eoEuyEV1X-x--24" target="CYf8EaJ0eoEuyEV1X-x--25" edge="1">
          <mxGeometry relative="1" as="geometry" />
        </mxCell>
        <mxCell id="CYf8EaJ0eoEuyEV1X-x--27" value="Ja" style="edgeLabel;html=1;align=center;verticalAlign=middle;resizable=0;points=[];" parent="CYf8EaJ0eoEuyEV1X-x--26" vertex="1" connectable="0">
          <mxGeometry x="-0.2786" y="-1" relative="1" as="geometry">
            <mxPoint y="-6" as="offset" />
          </mxGeometry>
        </mxCell>
        <mxCell id="CYf8EaJ0eoEuyEV1X-x--45" style="edgeStyle=orthogonalEdgeStyle;rounded=0;orthogonalLoop=1;jettySize=auto;html=1;" parent="WIyWlLk6GJQsqaUBKTNV-1" source="CYf8EaJ0eoEuyEV1X-x--24" target="CYf8EaJ0eoEuyEV1X-x--44" edge="1">
          <mxGeometry relative="1" as="geometry" />
        </mxCell>
        <mxCell id="CYf8EaJ0eoEuyEV1X-x--48" value="Nee" style="edgeLabel;html=1;align=center;verticalAlign=middle;resizable=0;points=[];" parent="CYf8EaJ0eoEuyEV1X-x--45" vertex="1" connectable="0">
          <mxGeometry x="0.0046" y="1" relative="1" as="geometry">
            <mxPoint x="-0.5" y="-5.35" as="offset" />
          </mxGeometry>
        </mxCell>
        <mxCell id="CYf8EaJ0eoEuyEV1X-x--24" value="als eindeloopschakelaar 1 = 1 (ingedrukt)" style="rhombus;whiteSpace=wrap;html=1;rounded=0;" parent="WIyWlLk6GJQsqaUBKTNV-1" vertex="1">
          <mxGeometry x="222" y="384" width="370" height="70" as="geometry" />
        </mxCell>
        <mxCell id="CYf8EaJ0eoEuyEV1X-x--59" style="edgeStyle=orthogonalEdgeStyle;rounded=0;orthogonalLoop=1;jettySize=auto;html=1;" parent="WIyWlLk6GJQsqaUBKTNV-1" source="CYf8EaJ0eoEuyEV1X-x--25" target="CYf8EaJ0eoEuyEV1X-x--57" edge="1">
          <mxGeometry relative="1" as="geometry">
            <Array as="points">
              <mxPoint x="763" y="419" />
              <mxPoint x="763" y="644" />
              <mxPoint x="578" y="644" />
            </Array>
          </mxGeometry>
        </mxCell>
        <mxCell id="CYf8EaJ0eoEuyEV1X-x--25" value="verander variabele &quot;stand&quot; naar &quot;omhoog&quot;" style="rounded=0;whiteSpace=wrap;html=1;fillColor=#d5e8d4;strokeColor=#82b366;" parent="WIyWlLk6GJQsqaUBKTNV-1" vertex="1">
          <mxGeometry x="627" y="389" width="120" height="60" as="geometry" />
        </mxCell>
        <mxCell id="CYf8EaJ0eoEuyEV1X-x--34" style="edgeStyle=orthogonalEdgeStyle;rounded=0;orthogonalLoop=1;jettySize=auto;html=1;" parent="WIyWlLk6GJQsqaUBKTNV-1" source="CYf8EaJ0eoEuyEV1X-x--30" target="CYf8EaJ0eoEuyEV1X-x--33" edge="1">
          <mxGeometry relative="1" as="geometry" />
        </mxCell>
        <mxCell id="CYf8EaJ0eoEuyEV1X-x--35" value="Ja" style="edgeLabel;html=1;align=center;verticalAlign=middle;resizable=0;points=[];" parent="CYf8EaJ0eoEuyEV1X-x--34" vertex="1" connectable="0">
          <mxGeometry x="-0.2048" relative="1" as="geometry">
            <mxPoint y="-5" as="offset" />
          </mxGeometry>
        </mxCell>
        <mxCell id="CYf8EaJ0eoEuyEV1X-x--39" style="edgeStyle=orthogonalEdgeStyle;rounded=0;orthogonalLoop=1;jettySize=auto;html=1;" parent="WIyWlLk6GJQsqaUBKTNV-1" source="CYf8EaJ0eoEuyEV1X-x--30" target="CYf8EaJ0eoEuyEV1X-x--13" edge="1">
          <mxGeometry relative="1" as="geometry">
            <Array as="points">
              <mxPoint x="407" y="624" />
              <mxPoint x="60" y="624" />
              <mxPoint x="60" y="289" />
            </Array>
          </mxGeometry>
        </mxCell>
        <mxCell id="CYf8EaJ0eoEuyEV1X-x--40" value="Nee" style="edgeLabel;html=1;align=center;verticalAlign=middle;resizable=0;points=[];" parent="CYf8EaJ0eoEuyEV1X-x--39" vertex="1" connectable="0">
          <mxGeometry x="-0.8787" y="1" relative="1" as="geometry">
            <mxPoint x="40.67" y="-11" as="offset" />
          </mxGeometry>
        </mxCell>
        <mxCell id="CYf8EaJ0eoEuyEV1X-x--30" value="als eindeloopschakelaar 2 = 1 (ingedrukt)" style="rhombus;whiteSpace=wrap;html=1;rounded=0;" parent="WIyWlLk6GJQsqaUBKTNV-1" vertex="1">
          <mxGeometry x="222" y="534" width="370" height="70" as="geometry" />
        </mxCell>
        <mxCell id="CYf8EaJ0eoEuyEV1X-x--52" style="edgeStyle=orthogonalEdgeStyle;rounded=0;orthogonalLoop=1;jettySize=auto;html=1;" parent="WIyWlLk6GJQsqaUBKTNV-1" source="CYf8EaJ0eoEuyEV1X-x--33" target="CYf8EaJ0eoEuyEV1X-x--50" edge="1">
          <mxGeometry relative="1" as="geometry">
            <Array as="points">
              <mxPoint x="687" y="634" />
              <mxPoint x="248" y="634" />
            </Array>
          </mxGeometry>
        </mxCell>
        <mxCell id="CYf8EaJ0eoEuyEV1X-x--33" value="verander variabele &quot;stand&quot; naar &quot;omlaag&quot;" style="rounded=0;whiteSpace=wrap;html=1;fillColor=#d5e8d4;strokeColor=#82b366;" parent="WIyWlLk6GJQsqaUBKTNV-1" vertex="1">
          <mxGeometry x="627" y="539" width="120" height="60" as="geometry" />
        </mxCell>
        <mxCell id="CYf8EaJ0eoEuyEV1X-x--43" style="edgeStyle=orthogonalEdgeStyle;rounded=0;orthogonalLoop=1;jettySize=auto;html=1;" parent="WIyWlLk6GJQsqaUBKTNV-1" source="CYf8EaJ0eoEuyEV1X-x--41" target="CYf8EaJ0eoEuyEV1X-x--24" edge="1">
          <mxGeometry relative="1" as="geometry" />
        </mxCell>
        <mxCell id="CYf8EaJ0eoEuyEV1X-x--41" value="lees waarde eindeloopschakelaar 1" style="shape=parallelogram;perimeter=parallelogramPerimeter;whiteSpace=wrap;html=1;fixedSize=1;rounded=0;" parent="WIyWlLk6GJQsqaUBKTNV-1" vertex="1">
          <mxGeometry x="290.5" y="334" width="232" height="30" as="geometry" />
        </mxCell>
        <mxCell id="CYf8EaJ0eoEuyEV1X-x--46" style="edgeStyle=orthogonalEdgeStyle;rounded=0;orthogonalLoop=1;jettySize=auto;html=1;entryX=0.5;entryY=0;entryDx=0;entryDy=0;" parent="WIyWlLk6GJQsqaUBKTNV-1" source="CYf8EaJ0eoEuyEV1X-x--44" target="CYf8EaJ0eoEuyEV1X-x--30" edge="1">
          <mxGeometry relative="1" as="geometry" />
        </mxCell>
        <mxCell id="CYf8EaJ0eoEuyEV1X-x--44" value="lees waarde eindeloopschakelaar 2" style="shape=parallelogram;perimeter=parallelogramPerimeter;whiteSpace=wrap;html=1;fixedSize=1;rounded=0;" parent="WIyWlLk6GJQsqaUBKTNV-1" vertex="1">
          <mxGeometry x="291" y="484" width="233" height="30" as="geometry" />
        </mxCell>
        <mxCell id="CYf8EaJ0eoEuyEV1X-x--64" style="edgeStyle=orthogonalEdgeStyle;rounded=0;orthogonalLoop=1;jettySize=auto;html=1;entryX=0;entryY=0.5;entryDx=0;entryDy=0;" parent="WIyWlLk6GJQsqaUBKTNV-1" source="CYf8EaJ0eoEuyEV1X-x--50" target="CYf8EaJ0eoEuyEV1X-x--13" edge="1">
          <mxGeometry relative="1" as="geometry">
            <Array as="points">
              <mxPoint x="50" y="699" />
              <mxPoint x="50" y="289" />
            </Array>
          </mxGeometry>
        </mxCell>
        <mxCell id="CYf8EaJ0eoEuyEV1X-x--65" value="Nee" style="edgeLabel;html=1;align=center;verticalAlign=middle;resizable=0;points=[];" parent="CYf8EaJ0eoEuyEV1X-x--64" vertex="1" connectable="0">
          <mxGeometry x="-0.9625" relative="1" as="geometry">
            <mxPoint y="-0.03" as="offset" />
          </mxGeometry>
        </mxCell>
        <mxCell id="p0vBAn8iaSSO2xwx-ton-6" style="edgeStyle=orthogonalEdgeStyle;rounded=0;orthogonalLoop=1;jettySize=auto;html=1;entryX=0.5;entryY=0;entryDx=0;entryDy=0;" parent="WIyWlLk6GJQsqaUBKTNV-1" source="CYf8EaJ0eoEuyEV1X-x--50" target="p0vBAn8iaSSO2xwx-ton-0" edge="1">
          <mxGeometry relative="1" as="geometry" />
        </mxCell>
        <mxCell id="LQ1cLBq-_--WQFbrApMP-2" value="Ja" style="edgeLabel;html=1;align=center;verticalAlign=middle;resizable=0;points=[];" parent="p0vBAn8iaSSO2xwx-ton-6" vertex="1" connectable="0">
          <mxGeometry x="0.4933" relative="1" as="geometry">
            <mxPoint as="offset" />
          </mxGeometry>
        </mxCell>
        <mxCell id="CYf8EaJ0eoEuyEV1X-x--50" value="zolang &quot;stand&quot; = &quot;omlaag&quot;" style="rhombus;whiteSpace=wrap;html=1;rounded=0;" parent="WIyWlLk6GJQsqaUBKTNV-1" vertex="1">
          <mxGeometry x="143" y="664" width="210" height="70" as="geometry" />
        </mxCell>
        <mxCell id="Z7qXLIscZxKdgFRrl8TT-2" style="edgeStyle=orthogonalEdgeStyle;rounded=0;orthogonalLoop=1;jettySize=auto;html=1;" parent="WIyWlLk6GJQsqaUBKTNV-1" source="CYf8EaJ0eoEuyEV1X-x--55" target="Z7qXLIscZxKdgFRrl8TT-0" edge="1">
          <mxGeometry relative="1" as="geometry" />
        </mxCell>
        <mxCell id="CYf8EaJ0eoEuyEV1X-x--55" value="draai omlaag aan snelheid potentio1" style="rounded=0;whiteSpace=wrap;html=1;fillColor=#d5e8d4;strokeColor=#82b366;" parent="WIyWlLk6GJQsqaUBKTNV-1" vertex="1">
          <mxGeometry x="136" y="904" width="224" height="30" as="geometry" />
        </mxCell>
        <mxCell id="abx6g4VYpOD5a4hkHdhx-0" value="Nee" style="edgeStyle=orthogonalEdgeStyle;rounded=0;orthogonalLoop=1;jettySize=auto;html=1;" parent="WIyWlLk6GJQsqaUBKTNV-1" source="CYf8EaJ0eoEuyEV1X-x--57" target="CYf8EaJ0eoEuyEV1X-x--50" edge="1">
          <mxGeometry x="-0.5" relative="1" as="geometry">
            <mxPoint as="offset" />
          </mxGeometry>
        </mxCell>
        <mxCell id="p0vBAn8iaSSO2xwx-ton-13" style="edgeStyle=orthogonalEdgeStyle;rounded=0;orthogonalLoop=1;jettySize=auto;html=1;" parent="WIyWlLk6GJQsqaUBKTNV-1" source="CYf8EaJ0eoEuyEV1X-x--57" target="p0vBAn8iaSSO2xwx-ton-11" edge="1">
          <mxGeometry relative="1" as="geometry" />
        </mxCell>
        <mxCell id="LQ1cLBq-_--WQFbrApMP-1" value="Ja" style="edgeLabel;html=1;align=center;verticalAlign=middle;resizable=0;points=[];" parent="p0vBAn8iaSSO2xwx-ton-13" vertex="1" connectable="0">
          <mxGeometry x="0.5333" relative="1" as="geometry">
            <mxPoint as="offset" />
          </mxGeometry>
        </mxCell>
        <mxCell id="CYf8EaJ0eoEuyEV1X-x--57" value="zolang &quot;stand&quot; = &quot;omhoog&quot;" style="rhombus;whiteSpace=wrap;html=1;rounded=0;" parent="WIyWlLk6GJQsqaUBKTNV-1" vertex="1">
          <mxGeometry x="473" y="664" width="210" height="70" as="geometry" />
        </mxCell>
        <mxCell id="Z7qXLIscZxKdgFRrl8TT-3" style="edgeStyle=orthogonalEdgeStyle;rounded=0;orthogonalLoop=1;jettySize=auto;html=1;" parent="WIyWlLk6GJQsqaUBKTNV-1" source="CYf8EaJ0eoEuyEV1X-x--58" target="Z7qXLIscZxKdgFRrl8TT-1" edge="1">
          <mxGeometry relative="1" as="geometry" />
        </mxCell>
        <mxCell id="CYf8EaJ0eoEuyEV1X-x--58" value="draai vloeiend omhoog aan snelheid potentio2" style="rounded=0;whiteSpace=wrap;html=1;fillColor=#d5e8d4;strokeColor=#82b366;" parent="WIyWlLk6GJQsqaUBKTNV-1" vertex="1">
          <mxGeometry x="466" y="904" width="224" height="30" as="geometry" />
        </mxCell>
        <mxCell id="Z7qXLIscZxKdgFRrl8TT-5" style="edgeStyle=orthogonalEdgeStyle;rounded=0;orthogonalLoop=1;jettySize=auto;html=1;" parent="WIyWlLk6GJQsqaUBKTNV-1" source="Z7qXLIscZxKdgFRrl8TT-0" target="Z7qXLIscZxKdgFRrl8TT-4" edge="1">
          <mxGeometry relative="1" as="geometry" />
        </mxCell>
        <mxCell id="Z7qXLIscZxKdgFRrl8TT-6" value="Ja" style="edgeLabel;html=1;align=center;verticalAlign=middle;resizable=0;points=[];" parent="Z7qXLIscZxKdgFRrl8TT-5" vertex="1" connectable="0">
          <mxGeometry x="0.4889" relative="1" as="geometry">
            <mxPoint x="15" as="offset" />
          </mxGeometry>
        </mxCell>
        <mxCell id="9KD2sniqeCgQRVRFQWX2-1" style="edgeStyle=orthogonalEdgeStyle;rounded=0;orthogonalLoop=1;jettySize=auto;html=1;" parent="WIyWlLk6GJQsqaUBKTNV-1" source="Z7qXLIscZxKdgFRrl8TT-0" target="p0vBAn8iaSSO2xwx-ton-0" edge="1">
          <mxGeometry relative="1" as="geometry">
            <Array as="points">
              <mxPoint x="383" y="989" />
              <mxPoint x="383" y="784" />
            </Array>
          </mxGeometry>
        </mxCell>
        <mxCell id="9KD2sniqeCgQRVRFQWX2-2" value="Nee" style="edgeLabel;html=1;align=center;verticalAlign=middle;resizable=0;points=[];" parent="9KD2sniqeCgQRVRFQWX2-1" vertex="1" connectable="0">
          <mxGeometry x="-0.9432" y="1" relative="1" as="geometry">
            <mxPoint x="6" y="1" as="offset" />
          </mxGeometry>
        </mxCell>
        <mxCell id="Z7qXLIscZxKdgFRrl8TT-0" value="als eindeloopschakelaar 1 = 1" style="rhombus;whiteSpace=wrap;html=1;rounded=0;" parent="WIyWlLk6GJQsqaUBKTNV-1" vertex="1">
          <mxGeometry x="143" y="954" width="210" height="70" as="geometry" />
        </mxCell>
        <mxCell id="Z7qXLIscZxKdgFRrl8TT-11" style="edgeStyle=orthogonalEdgeStyle;rounded=0;orthogonalLoop=1;jettySize=auto;html=1;" parent="WIyWlLk6GJQsqaUBKTNV-1" source="Z7qXLIscZxKdgFRrl8TT-1" target="Z7qXLIscZxKdgFRrl8TT-10" edge="1">
          <mxGeometry relative="1" as="geometry" />
        </mxCell>
        <mxCell id="Z7qXLIscZxKdgFRrl8TT-12" value="Ja" style="edgeLabel;html=1;align=center;verticalAlign=middle;resizable=0;points=[];" parent="Z7qXLIscZxKdgFRrl8TT-11" vertex="1" connectable="0">
          <mxGeometry x="0.5307" y="-1" relative="1" as="geometry">
            <mxPoint x="15" as="offset" />
          </mxGeometry>
        </mxCell>
        <mxCell id="9KD2sniqeCgQRVRFQWX2-6" style="edgeStyle=orthogonalEdgeStyle;rounded=0;orthogonalLoop=1;jettySize=auto;html=1;entryX=1;entryY=0.5;entryDx=0;entryDy=0;" parent="WIyWlLk6GJQsqaUBKTNV-1" source="Z7qXLIscZxKdgFRrl8TT-1" target="p0vBAn8iaSSO2xwx-ton-11" edge="1">
          <mxGeometry relative="1" as="geometry">
            <Array as="points">
              <mxPoint x="723" y="989" />
              <mxPoint x="723" y="784" />
            </Array>
          </mxGeometry>
        </mxCell>
        <mxCell id="9KD2sniqeCgQRVRFQWX2-7" value="Nee" style="edgeLabel;html=1;align=center;verticalAlign=middle;resizable=0;points=[];" parent="9KD2sniqeCgQRVRFQWX2-6" vertex="1" connectable="0">
          <mxGeometry x="-0.8018" relative="1" as="geometry">
            <mxPoint x="-8" as="offset" />
          </mxGeometry>
        </mxCell>
        <mxCell id="Z7qXLIscZxKdgFRrl8TT-1" value="als eindeloopschakelaar 2 = 1" style="rhombus;whiteSpace=wrap;html=1;rounded=0;" parent="WIyWlLk6GJQsqaUBKTNV-1" vertex="1">
          <mxGeometry x="473" y="954" width="210" height="70" as="geometry" />
        </mxCell>
        <mxCell id="Z7qXLIscZxKdgFRrl8TT-7" style="edgeStyle=orthogonalEdgeStyle;rounded=0;orthogonalLoop=1;jettySize=auto;html=1;entryX=1;entryY=0.5;entryDx=0;entryDy=0;" parent="WIyWlLk6GJQsqaUBKTNV-1" source="Z7qXLIscZxKdgFRrl8TT-4" target="CYf8EaJ0eoEuyEV1X-x--57" edge="1">
          <mxGeometry relative="1" as="geometry">
            <Array as="points">
              <mxPoint x="248" y="1124" />
              <mxPoint x="763" y="1124" />
              <mxPoint x="763" y="699" />
            </Array>
          </mxGeometry>
        </mxCell>
        <mxCell id="Z7qXLIscZxKdgFRrl8TT-4" value="&lt;div&gt;verander variabele &quot;stand&quot; naar &quot;omhoog&quot;&lt;/div&gt;verander variabele &quot;hasRun&quot; naar false" style="rounded=0;whiteSpace=wrap;html=1;fillColor=#d5e8d4;strokeColor=#82b366;" parent="WIyWlLk6GJQsqaUBKTNV-1" vertex="1">
          <mxGeometry x="133" y="1044" width="230" height="60" as="geometry" />
        </mxCell>
        <mxCell id="Z7qXLIscZxKdgFRrl8TT-15" style="edgeStyle=orthogonalEdgeStyle;rounded=0;orthogonalLoop=1;jettySize=auto;html=1;entryX=1;entryY=0.5;entryDx=0;entryDy=0;" parent="WIyWlLk6GJQsqaUBKTNV-1" source="Z7qXLIscZxKdgFRrl8TT-10" target="CYf8EaJ0eoEuyEV1X-x--50" edge="1">
          <mxGeometry relative="1" as="geometry">
            <Array as="points">
              <mxPoint x="393" y="1054" />
              <mxPoint x="393" y="699" />
            </Array>
          </mxGeometry>
        </mxCell>
        <mxCell id="Z7qXLIscZxKdgFRrl8TT-10" value="&lt;div&gt;verander variabele &quot;stand&quot; naar &quot;omlaag&quot;&lt;/div&gt;&lt;div&gt;verander variabele &quot;hasRun&quot; naar false&lt;br&gt;&lt;/div&gt;" style="rounded=0;whiteSpace=wrap;html=1;fillColor=#d5e8d4;strokeColor=#82b366;" parent="WIyWlLk6GJQsqaUBKTNV-1" vertex="1">
          <mxGeometry x="463" y="1044" width="230" height="60" as="geometry" />
        </mxCell>
        <mxCell id="p0vBAn8iaSSO2xwx-ton-3" style="edgeStyle=orthogonalEdgeStyle;rounded=0;orthogonalLoop=1;jettySize=auto;html=1;" parent="WIyWlLk6GJQsqaUBKTNV-1" source="p0vBAn8iaSSO2xwx-ton-0" target="p0vBAn8iaSSO2xwx-ton-2" edge="1">
          <mxGeometry relative="1" as="geometry" />
        </mxCell>
        <mxCell id="p0vBAn8iaSSO2xwx-ton-4" value="Ja" style="edgeLabel;html=1;align=center;verticalAlign=middle;resizable=0;points=[];" parent="p0vBAn8iaSSO2xwx-ton-3" vertex="1" connectable="0">
          <mxGeometry x="-0.84" y="-1" relative="1" as="geometry">
            <mxPoint y="6" as="offset" />
          </mxGeometry>
        </mxCell>
        <mxCell id="p0vBAn8iaSSO2xwx-ton-7" style="edgeStyle=orthogonalEdgeStyle;rounded=0;orthogonalLoop=1;jettySize=auto;html=1;" parent="WIyWlLk6GJQsqaUBKTNV-1" source="p0vBAn8iaSSO2xwx-ton-0" target="CYf8EaJ0eoEuyEV1X-x--55" edge="1">
          <mxGeometry relative="1" as="geometry">
            <Array as="points">
              <mxPoint x="83" y="784" />
              <mxPoint x="83" y="919" />
            </Array>
          </mxGeometry>
        </mxCell>
        <mxCell id="p0vBAn8iaSSO2xwx-ton-8" value="Nee" style="edgeLabel;html=1;align=center;verticalAlign=middle;resizable=0;points=[];" parent="p0vBAn8iaSSO2xwx-ton-7" vertex="1" connectable="0">
          <mxGeometry x="-0.8709" relative="1" as="geometry">
            <mxPoint as="offset" />
          </mxGeometry>
        </mxCell>
        <mxCell id="p0vBAn8iaSSO2xwx-ton-0" value="als &quot;hasRun&quot; = false" style="rhombus;whiteSpace=wrap;html=1;rounded=0;" parent="WIyWlLk6GJQsqaUBKTNV-1" vertex="1">
          <mxGeometry x="143" y="754" width="210" height="60" as="geometry" />
        </mxCell>
        <mxCell id="p0vBAn8iaSSO2xwx-ton-5" style="edgeStyle=orthogonalEdgeStyle;rounded=0;orthogonalLoop=1;jettySize=auto;html=1;entryX=0.5;entryY=0;entryDx=0;entryDy=0;" parent="WIyWlLk6GJQsqaUBKTNV-1" source="p0vBAn8iaSSO2xwx-ton-2" target="CYf8EaJ0eoEuyEV1X-x--55" edge="1">
          <mxGeometry relative="1" as="geometry" />
        </mxCell>
        <mxCell id="p0vBAn8iaSSO2xwx-ton-2" value="&lt;div&gt;stop vloeiend en start vloeiend&lt;/div&gt;variabele &quot;hasRun&quot; = true" style="rounded=0;whiteSpace=wrap;html=1;fillColor=#d5e8d4;strokeColor=#82b366;" parent="WIyWlLk6GJQsqaUBKTNV-1" vertex="1">
          <mxGeometry x="136" y="844" width="224" height="30" as="geometry" />
        </mxCell>
        <mxCell id="p0vBAn8iaSSO2xwx-ton-9" style="edgeStyle=orthogonalEdgeStyle;rounded=0;orthogonalLoop=1;jettySize=auto;html=1;" parent="WIyWlLk6GJQsqaUBKTNV-1" source="p0vBAn8iaSSO2xwx-ton-11" target="p0vBAn8iaSSO2xwx-ton-12" edge="1">
          <mxGeometry relative="1" as="geometry" />
        </mxCell>
        <mxCell id="p0vBAn8iaSSO2xwx-ton-10" value="Ja" style="edgeLabel;html=1;align=center;verticalAlign=middle;resizable=0;points=[];" parent="p0vBAn8iaSSO2xwx-ton-9" vertex="1" connectable="0">
          <mxGeometry x="-0.84" y="-1" relative="1" as="geometry">
            <mxPoint y="6" as="offset" />
          </mxGeometry>
        </mxCell>
        <mxCell id="p0vBAn8iaSSO2xwx-ton-14" style="edgeStyle=orthogonalEdgeStyle;rounded=0;orthogonalLoop=1;jettySize=auto;html=1;entryX=0;entryY=0.5;entryDx=0;entryDy=0;" parent="WIyWlLk6GJQsqaUBKTNV-1" source="p0vBAn8iaSSO2xwx-ton-11" target="CYf8EaJ0eoEuyEV1X-x--58" edge="1">
          <mxGeometry relative="1" as="geometry">
            <Array as="points">
              <mxPoint x="423" y="784" />
              <mxPoint x="423" y="919" />
            </Array>
          </mxGeometry>
        </mxCell>
        <mxCell id="p0vBAn8iaSSO2xwx-ton-15" value="Nee" style="edgeLabel;html=1;align=center;verticalAlign=middle;resizable=0;points=[];" parent="p0vBAn8iaSSO2xwx-ton-14" vertex="1" connectable="0">
          <mxGeometry x="-0.8563" y="-1" relative="1" as="geometry">
            <mxPoint as="offset" />
          </mxGeometry>
        </mxCell>
        <mxCell id="p0vBAn8iaSSO2xwx-ton-11" value="als &quot;hasRun&quot; = false" style="rhombus;whiteSpace=wrap;html=1;rounded=0;" parent="WIyWlLk6GJQsqaUBKTNV-1" vertex="1">
          <mxGeometry x="473" y="754" width="210" height="60" as="geometry" />
        </mxCell>
        <mxCell id="LQ1cLBq-_--WQFbrApMP-0" style="edgeStyle=orthogonalEdgeStyle;rounded=0;orthogonalLoop=1;jettySize=auto;html=1;" parent="WIyWlLk6GJQsqaUBKTNV-1" source="p0vBAn8iaSSO2xwx-ton-12" target="CYf8EaJ0eoEuyEV1X-x--58" edge="1">
          <mxGeometry relative="1" as="geometry" />
        </mxCell>
        <mxCell id="p0vBAn8iaSSO2xwx-ton-12" value="&lt;div&gt;stop vloeiend en start vloeiend&lt;/div&gt;&lt;div&gt;variabele &quot;hasRun&quot; = true&lt;br&gt;&lt;/div&gt;" style="rounded=0;whiteSpace=wrap;html=1;fillColor=#d5e8d4;strokeColor=#82b366;" parent="WIyWlLk6GJQsqaUBKTNV-1" vertex="1">
          <mxGeometry x="466" y="844" width="224" height="30" as="geometry" />
        </mxCell>
        <mxCell id="aHCrivL5wYVHbB7a-_E4-0" value="" style="rounded=1;whiteSpace=wrap;html=1;arcSize=11;" parent="WIyWlLk6GJQsqaUBKTNV-1" vertex="1">
          <mxGeometry x="33" y="42" width="214" height="184" as="geometry" />
        </mxCell>
        <mxCell id="aHCrivL5wYVHbB7a-_E4-1" value="waarde omlaag = 35&lt;br&gt;waarde omhoog = 150" style="rounded=0;whiteSpace=wrap;html=1;" parent="WIyWlLk6GJQsqaUBKTNV-1" vertex="1">
          <mxGeometry x="43.75" y="66" width="192.5" height="30" as="geometry" />
        </mxCell>
        <mxCell id="aHCrivL5wYVHbB7a-_E4-2" value="potentiometer 1024 waarden" style="rounded=0;whiteSpace=wrap;html=1;" parent="WIyWlLk6GJQsqaUBKTNV-1" vertex="1">
          <mxGeometry x="43.75" y="106" width="192.5" height="26" as="geometry" />
        </mxCell>
        <mxCell id="aHCrivL5wYVHbB7a-_E4-7" value="" style="endArrow=none;html=1;strokeWidth=2;" parent="WIyWlLk6GJQsqaUBKTNV-1" edge="1">
          <mxGeometry width="50" height="50" relative="1" as="geometry">
            <mxPoint x="80" y="182" as="sourcePoint" />
            <mxPoint x="200" y="182" as="targetPoint" />
          </mxGeometry>
        </mxCell>
        <mxCell id="aHCrivL5wYVHbB7a-_E4-8" value="" style="endArrow=none;html=1;strokeWidth=2;" parent="WIyWlLk6GJQsqaUBKTNV-1" source="aHCrivL5wYVHbB7a-_E4-10" edge="1">
          <mxGeometry width="50" height="50" relative="1" as="geometry">
            <mxPoint x="140" y="204" as="sourcePoint" />
            <mxPoint x="140" y="182" as="targetPoint" />
            <Array as="points">
              <mxPoint x="140" y="192" />
            </Array>
          </mxGeometry>
        </mxCell>
        <mxCell id="aHCrivL5wYVHbB7a-_E4-10" value="0" style="text;html=1;strokeColor=none;fillColor=none;align=center;verticalAlign=middle;whiteSpace=wrap;rounded=0;" parent="WIyWlLk6GJQsqaUBKTNV-1" vertex="1">
          <mxGeometry x="130" y="194" width="20" height="20" as="geometry" />
        </mxCell>
        <mxCell id="aHCrivL5wYVHbB7a-_E4-11" value="" style="endArrow=none;html=1;strokeWidth=2;" parent="WIyWlLk6GJQsqaUBKTNV-1" source="aHCrivL5wYVHbB7a-_E4-12" edge="1">
          <mxGeometry width="50" height="50" relative="1" as="geometry">
            <mxPoint x="80" y="204" as="sourcePoint" />
            <mxPoint x="80" y="182" as="targetPoint" />
            <Array as="points">
              <mxPoint x="80" y="192" />
            </Array>
          </mxGeometry>
        </mxCell>
        <mxCell id="aHCrivL5wYVHbB7a-_E4-12" value="-35" style="text;html=1;strokeColor=none;fillColor=none;align=center;verticalAlign=middle;whiteSpace=wrap;rounded=0;" parent="WIyWlLk6GJQsqaUBKTNV-1" vertex="1">
          <mxGeometry x="70" y="194" width="20" height="20" as="geometry" />
        </mxCell>
        <mxCell id="aHCrivL5wYVHbB7a-_E4-13" value="" style="endArrow=none;html=1;strokeWidth=2;" parent="WIyWlLk6GJQsqaUBKTNV-1" source="aHCrivL5wYVHbB7a-_E4-14" edge="1">
          <mxGeometry width="50" height="50" relative="1" as="geometry">
            <mxPoint x="200" y="204" as="sourcePoint" />
            <mxPoint x="200" y="182" as="targetPoint" />
            <Array as="points">
              <mxPoint x="200" y="192" />
            </Array>
          </mxGeometry>
        </mxCell>
        <mxCell id="aHCrivL5wYVHbB7a-_E4-14" value="+35" style="text;html=1;strokeColor=none;fillColor=none;align=center;verticalAlign=middle;whiteSpace=wrap;rounded=0;" parent="WIyWlLk6GJQsqaUBKTNV-1" vertex="1">
          <mxGeometry x="190" y="194" width="20" height="20" as="geometry" />
        </mxCell>
        <mxCell id="aHCrivL5wYVHbB7a-_E4-15" value="" style="endArrow=none;html=1;strokeWidth=2;" parent="WIyWlLk6GJQsqaUBKTNV-1" edge="1">
          <mxGeometry width="50" height="50" relative="1" as="geometry">
            <mxPoint x="80" y="142" as="sourcePoint" />
            <mxPoint x="200" y="142" as="targetPoint" />
          </mxGeometry>
        </mxCell>
        <mxCell id="aHCrivL5wYVHbB7a-_E4-16" value="" style="endArrow=none;html=1;strokeWidth=2;" parent="WIyWlLk6GJQsqaUBKTNV-1" source="aHCrivL5wYVHbB7a-_E4-17" edge="1">
          <mxGeometry width="50" height="50" relative="1" as="geometry">
            <mxPoint x="140" y="164" as="sourcePoint" />
            <mxPoint x="140" y="142" as="targetPoint" />
            <Array as="points">
              <mxPoint x="140" y="152" />
            </Array>
          </mxGeometry>
        </mxCell>
        <mxCell id="aHCrivL5wYVHbB7a-_E4-17" value="512" style="text;html=1;strokeColor=none;fillColor=none;align=center;verticalAlign=middle;whiteSpace=wrap;rounded=0;" parent="WIyWlLk6GJQsqaUBKTNV-1" vertex="1">
          <mxGeometry x="130" y="154" width="20" height="20" as="geometry" />
        </mxCell>
        <mxCell id="aHCrivL5wYVHbB7a-_E4-18" value="" style="endArrow=none;html=1;strokeWidth=2;" parent="WIyWlLk6GJQsqaUBKTNV-1" source="aHCrivL5wYVHbB7a-_E4-19" edge="1">
          <mxGeometry width="50" height="50" relative="1" as="geometry">
            <mxPoint x="80" y="164" as="sourcePoint" />
            <mxPoint x="80" y="142" as="targetPoint" />
            <Array as="points">
              <mxPoint x="80" y="152" />
            </Array>
          </mxGeometry>
        </mxCell>
        <mxCell id="aHCrivL5wYVHbB7a-_E4-19" value="0" style="text;html=1;strokeColor=none;fillColor=none;align=center;verticalAlign=middle;whiteSpace=wrap;rounded=0;" parent="WIyWlLk6GJQsqaUBKTNV-1" vertex="1">
          <mxGeometry x="70" y="154" width="20" height="20" as="geometry" />
        </mxCell>
        <mxCell id="aHCrivL5wYVHbB7a-_E4-20" value="" style="endArrow=none;html=1;strokeWidth=2;" parent="WIyWlLk6GJQsqaUBKTNV-1" source="aHCrivL5wYVHbB7a-_E4-21" edge="1">
          <mxGeometry width="50" height="50" relative="1" as="geometry">
            <mxPoint x="200" y="164" as="sourcePoint" />
            <mxPoint x="200" y="142" as="targetPoint" />
            <Array as="points">
              <mxPoint x="200" y="152" />
            </Array>
          </mxGeometry>
        </mxCell>
        <mxCell id="aHCrivL5wYVHbB7a-_E4-21" value="1024" style="text;html=1;strokeColor=none;fillColor=none;align=center;verticalAlign=middle;whiteSpace=wrap;rounded=0;" parent="WIyWlLk6GJQsqaUBKTNV-1" vertex="1">
          <mxGeometry x="180" y="154" width="40" height="20" as="geometry" />
        </mxCell>
        <mxCell id="85hw435XrvNYK_B15_eo-0" value="snelheid volgens potentiometer" style="rounded=1;whiteSpace=wrap;html=1;fillColor=#dae8fc;strokeColor=#6c8ebf;" vertex="1" parent="WIyWlLk6GJQsqaUBKTNV-1">
          <mxGeometry x="48.5" y="32" width="184.5" height="20" as="geometry" />
        </mxCell>
        <mxCell id="85hw435XrvNYK_B15_eo-1" value="" style="rounded=1;whiteSpace=wrap;html=1;arcSize=11;" vertex="1" parent="WIyWlLk6GJQsqaUBKTNV-1">
          <mxGeometry x="570" y="42" width="231" height="198" as="geometry" />
        </mxCell>
        <mxCell id="85hw435XrvNYK_B15_eo-18" value="snelheid volgens potentiometer" style="rounded=1;whiteSpace=wrap;html=1;fillColor=#dae8fc;strokeColor=#6c8ebf;" vertex="1" parent="WIyWlLk6GJQsqaUBKTNV-1">
          <mxGeometry x="593.5" y="32" width="187" height="20" as="geometry" />
        </mxCell>
        <mxCell id="85hw435XrvNYK_B15_eo-23" style="edgeStyle=orthogonalEdgeStyle;rounded=0;orthogonalLoop=1;jettySize=auto;html=1;entryX=0.5;entryY=0;entryDx=0;entryDy=0;" edge="1" parent="WIyWlLk6GJQsqaUBKTNV-1" source="85hw435XrvNYK_B15_eo-20" target="85hw435XrvNYK_B15_eo-21">
          <mxGeometry relative="1" as="geometry" />
        </mxCell>
        <mxCell id="85hw435XrvNYK_B15_eo-26" style="edgeStyle=orthogonalEdgeStyle;rounded=0;orthogonalLoop=1;jettySize=auto;html=1;entryX=0;entryY=0.5;entryDx=0;entryDy=0;" edge="1" parent="WIyWlLk6GJQsqaUBKTNV-1" source="85hw435XrvNYK_B15_eo-20" target="85hw435XrvNYK_B15_eo-25">
          <mxGeometry relative="1" as="geometry">
            <Array as="points">
              <mxPoint x="570" y="78" />
              <mxPoint x="570" y="149" />
            </Array>
          </mxGeometry>
        </mxCell>
        <mxCell id="85hw435XrvNYK_B15_eo-27" value="Nee" style="edgeLabel;html=1;align=center;verticalAlign=middle;resizable=0;points=[];" vertex="1" connectable="0" parent="85hw435XrvNYK_B15_eo-26">
          <mxGeometry x="-0.7977" y="1" relative="1" as="geometry">
            <mxPoint as="offset" />
          </mxGeometry>
        </mxCell>
        <mxCell id="85hw435XrvNYK_B15_eo-20" value="als waarde &amp;lt; 512" style="rhombus;whiteSpace=wrap;html=1;rounded=0;" vertex="1" parent="WIyWlLk6GJQsqaUBKTNV-1">
          <mxGeometry x="617" y="62" width="137" height="32" as="geometry" />
        </mxCell>
        <mxCell id="85hw435XrvNYK_B15_eo-21" value="berekent te vertragen waarde (max 35)" style="rounded=0;whiteSpace=wrap;html=1;" vertex="1" parent="WIyWlLk6GJQsqaUBKTNV-1">
          <mxGeometry x="575.5" y="106" width="220" height="19" as="geometry" />
        </mxCell>
        <mxCell id="85hw435XrvNYK_B15_eo-29" style="edgeStyle=orthogonalEdgeStyle;rounded=0;orthogonalLoop=1;jettySize=auto;html=1;" edge="1" parent="WIyWlLk6GJQsqaUBKTNV-1" source="85hw435XrvNYK_B15_eo-25" target="85hw435XrvNYK_B15_eo-28">
          <mxGeometry relative="1" as="geometry" />
        </mxCell>
        <mxCell id="85hw435XrvNYK_B15_eo-31" style="edgeStyle=orthogonalEdgeStyle;rounded=0;orthogonalLoop=1;jettySize=auto;html=1;entryX=1;entryY=0.5;entryDx=0;entryDy=0;" edge="1" parent="WIyWlLk6GJQsqaUBKTNV-1" source="85hw435XrvNYK_B15_eo-25" target="85hw435XrvNYK_B15_eo-30">
          <mxGeometry relative="1" as="geometry">
            <Array as="points">
              <mxPoint x="800" y="149" />
              <mxPoint x="800" y="214" />
            </Array>
          </mxGeometry>
        </mxCell>
        <mxCell id="85hw435XrvNYK_B15_eo-32" value="Nee" style="edgeLabel;html=1;align=center;verticalAlign=middle;resizable=0;points=[];" vertex="1" connectable="0" parent="85hw435XrvNYK_B15_eo-31">
          <mxGeometry x="-0.7748" relative="1" as="geometry">
            <mxPoint as="offset" />
          </mxGeometry>
        </mxCell>
        <mxCell id="85hw435XrvNYK_B15_eo-25" value="als waarde &amp;gt; 512" style="rhombus;whiteSpace=wrap;html=1;rounded=0;" vertex="1" parent="WIyWlLk6GJQsqaUBKTNV-1">
          <mxGeometry x="617" y="133" width="137" height="32" as="geometry" />
        </mxCell>
        <mxCell id="85hw435XrvNYK_B15_eo-28" value="berekent te vertragen waarde (max 35)" style="rounded=0;whiteSpace=wrap;html=1;" vertex="1" parent="WIyWlLk6GJQsqaUBKTNV-1">
          <mxGeometry x="575.5" y="174" width="220" height="19" as="geometry" />
        </mxCell>
        <mxCell id="85hw435XrvNYK_B15_eo-38" style="edgeStyle=orthogonalEdgeStyle;rounded=0;orthogonalLoop=1;jettySize=auto;html=1;" edge="1" parent="WIyWlLk6GJQsqaUBKTNV-1" source="85hw435XrvNYK_B15_eo-30" target="85hw435XrvNYK_B15_eo-33">
          <mxGeometry relative="1" as="geometry" />
        </mxCell>
        <mxCell id="85hw435XrvNYK_B15_eo-30" value="&lt;font style=&quot;font-size: 10px&quot;&gt;als waarde = 512&lt;/font&gt;" style="rhombus;whiteSpace=wrap;html=1;rounded=0;" vertex="1" parent="WIyWlLk6GJQsqaUBKTNV-1">
          <mxGeometry x="660" y="198" width="120.5" height="32" as="geometry" />
        </mxCell>
        <mxCell id="85hw435XrvNYK_B15_eo-33" value="&lt;font style=&quot;font-size: 7px&quot;&gt;gebruik ingestelde snelheid&lt;/font&gt;" style="rounded=0;whiteSpace=wrap;html=1;" vertex="1" parent="WIyWlLk6GJQsqaUBKTNV-1">
          <mxGeometry x="575.5" y="198" width="64.5" height="30" as="geometry" />
        </mxCell>
      </root>
    </mxGraphModel>
  </diagram>
</mxfile>
